solid piramida
  facet normal 0.0 -0.8944271909999159 0.4472135954999579
    outer loop
      vertex -1.0 -1.0 0.0
      vertex  1.0 -1.0 0.0
      vertex  0.0  0.0 2.0
    endloop
  endfacet
  facet normal 0.8944271909999159 0.0 0.4472135954999579
    outer loop
      vertex  1.0 -1.0 0.0
      vertex  1.0  1.0 0.0
      vertex  0.0  0.0 2.0
    endloop
  endfacet
  facet normal 0.0 0.8944271909999159 0.4472135954999579
    outer loop
      vertex  1.0  1.0 0.0
      vertex -1.0  1.0 0.0
      vertex  0.0  0.0 2.0
    endloop
  endfacet
  facet normal -0.8944271909999159 0.0 0.4472135954999579
    outer loop
      vertex -1.0  1.0 0.0
      vertex -1.0 -1.0 0.0
      vertex  0.0  0.0 2.0
    endloop
  endfacet
  facet normal 0.0 0.0 -1.0
    outer loop
      vertex -1.0 -1.0 0.0
      vertex  1.0  1.0 0.0
      vertex  1.0 -1.0 0.0
    endloop
  endfacet
  facet normal 0.0 0.0 -1.0
    outer loop
      vertex -1.0 -1.0 0.0
      vertex -1.0  1.0 0.0
      vertex  1.0  1.0 0.0
    endloop
  endfacet
endsolid piramida
